<svg width="278" height="278" viewBox="0 0 278 278" fill="none" xmlns="http://www.w3.org/2000/svg">
<g opacity="0.1">
<path d="M104.016 171.796V66.9883H134.758V171.796H104.016Z" fill="black" stroke="black"/>
<path d="M151.637 171.788V98.7227H182.379V171.788H151.637Z" fill="black" stroke="black"/>
<path d="M56.4023 171.796V130.473H87.1445V171.796H56.4023Z" fill="black" stroke="black"/>
<path d="M235.776 119.388C235.776 55.1082 183.668 3 119.388 3C55.1082 3 3 55.1082 3 119.388C3 183.668 55.1082 235.776 119.388 235.776C147.718 235.776 173.667 225.637 193.849 208.811L260.038 275L275 260.038L208.812 193.849C225.637 173.667 235.776 147.718 235.776 119.388ZM119.388 214.615C66.8799 214.615 24.1615 171.896 24.1615 119.388C24.1615 66.8799 66.8799 24.1615 119.388 24.1615C171.896 24.1615 214.616 66.8799 214.616 119.388C214.616 171.896 171.896 214.615 119.388 214.615Z" fill="black" stroke="black" stroke-width="5" stroke-linejoin="round"/>
</g>
</svg>
