<svg width="276" height="220" viewBox="0 0 276 220" fill="none" xmlns="http://www.w3.org/2000/svg">
<g opacity="0.1" clip-path="url(#clip0_671_8115)">
<path d="M0 0H227.438H228.792H275.764C276.065 0.527454 275.998 1.11092 276 1.70149L276.002 173.385L276 208.313C276 209.837 276.206 218.846 275.916 219.702C275.878 219.816 275.825 219.894 275.764 220H40.6519H36.9372H0V0ZM68.5403 27.5881L55.0105 123.475L51.4386 148.664C50.9466 152.083 50.5324 155.517 49.9841 158.928C54.0534 159.157 58.5463 160.167 62.6417 160.738L96.1912 165.693L198.446 180.723L213.511 182.979C216.053 183.346 218.626 183.604 221.16 184.01L232.438 185.755C233.752 185.955 235.498 186.448 236.805 186.388C237.222 185.941 237.196 185.058 237.275 184.455L250.308 91.3422L253.862 66.6269L254.962 58.8049C255.108 57.8166 255.469 56.5565 255.423 55.5727C255.417 55.4359 255.378 55.3188 255.329 55.1927L130.077 36.707L88.5861 30.6047L74.6781 28.5824C72.6761 28.2798 70.4822 28.1332 68.5403 27.5881ZM0 0V220H36.9372C35.8428 219.428 34.6739 219.106 33.6098 218.429C31.3808 217.011 30.0463 214.73 29.5028 212.186C28.6816 208.342 28.1575 204.417 27.4474 200.55L22.2543 171.705L11.9068 114.376L3.75013 68.9878L1.69443 57.7128C1.35496 55.8531 0.905917 53.9459 0.731243 52.0643C0.519269 49.7808 0.932727 47.4406 2.21028 45.5044C3.16866 44.0517 4.72519 42.6535 6.34572 41.9886C9.37146 40.7466 13.6572 40.4133 16.9226 39.7612L48.4121 33.7648C48.924 29.7018 49.6047 25.6538 50.1886 21.601C50.5651 18.9873 50.6814 15.5602 51.5988 13.1109C52.1466 11.6467 53.1728 10.254 54.3488 9.2314C55.7743 7.99183 57.9041 7.15794 59.7914 7.0876C62.0739 7.00249 64.4383 7.52053 66.6894 7.86413L76.4114 9.32424C87.4211 10.8083 98.4143 12.4062 109.391 14.1178L124.325 16.3627C127.174 16.7897 130.08 17.3888 132.955 17.5829C133.921 17.6481 134.787 17.5902 135.744 17.4423C138.417 17.0291 141.081 16.4331 143.74 15.928L162.293 12.386L226.231 0.396118C226.635 0.318359 227.121 0.277081 227.438 0H0ZM228.792 0C232.507 0.879355 234.678 1.87956 236.724 5.25267C237.296 6.19532 237.545 7.60642 237.782 8.69128C238.323 11.1672 242.331 33.0242 242.096 33.7784C242.084 33.8157 242.064 33.8495 242.047 33.885C246.372 34.0045 250.832 35.03 255.117 35.6361C257.49 35.9718 259.859 36.3571 262.234 36.675C264.633 36.9962 267.368 37.1613 269.664 37.9419C270.922 38.3694 272.133 39.3307 273.035 40.2851C274.932 42.2925 275.86 44.7717 275.758 47.5279C275.687 49.4847 275.14 51.4411 274.889 53.3876C274.1 59.5454 273.241 65.6933 272.311 71.8312L265.68 118.907L263.876 131.665C263.292 135.608 262.61 139.615 262.301 143.592C262.162 145.383 262.814 147.597 263.132 149.368L265.151 160.681C265.659 163.483 266.33 166.345 266.405 169.2C266.439 170.495 266.302 171.83 265.85 173.052C265.315 174.496 264.396 175.62 263.266 176.648C261.44 178.308 259.334 178.888 256.929 179.171C257.198 179.897 254.412 199.84 253.807 201.188C252.749 203.541 250.889 205.598 248.426 206.495C247.202 206.941 245.836 207.123 244.536 207.061C242.17 206.948 239.786 206.467 237.445 206.105C233.93 205.557 230.412 205.034 226.889 204.534L187.123 198.698L175.265 196.933C173.075 196.609 170.871 196.211 168.665 196.018C167.837 195.946 166.954 196.117 166.138 196.257C158.568 197.558 151.015 199.099 143.462 200.508L82.4884 212.008L54.0174 217.33C51.6828 217.762 41.933 219.334 40.6519 220H275.764C275.825 219.894 275.878 219.816 275.916 219.702C276.206 218.846 276 209.837 276 208.313L276.002 173.385L276 1.70149C275.998 1.11092 276.065 0.527454 275.764 0H228.792ZM44.9106 54.1833C40.4842 55.0881 36.024 55.8225 31.5919 56.7005C29.3198 57.1578 27.0443 57.5984 24.7656 58.0221C23.6492 58.2388 22.5052 58.5365 21.3809 58.6776C21.6251 61.5413 22.2694 64.3938 22.7768 67.2224L25.0296 79.8253L30.3132 109.098C31.0377 113.18 31.8387 117.253 32.5091 121.344C33.3351 124.961 33.7585 128.667 34.6177 132.281C34.7521 130.241 35.1396 128.241 35.445 126.223C35.7826 123.992 36.0674 121.746 36.3794 119.51L40.939 86.7602C41.5266 82.6849 45.6807 54.9574 45.5437 54.3487C45.5255 54.2676 45.4581 54.206 45.415 54.1345L44.9106 54.1833ZM42.5061 177.379C43.2356 179.464 43.4168 181.95 43.8236 184.133C44.7484 189.102 45.7589 194.069 46.4503 199.077C63.7494 195.65 81.1721 192.779 98.4368 189.197C99.8309 189.035 107.1 187.819 107.931 187.226C102.822 185.96 97.4234 185.552 92.2262 184.728C80.3007 182.837 68.3239 181.187 56.3772 179.428C51.7618 178.748 47.0992 178.176 42.5061 177.379ZM220.169 21.2055C217.491 22.0229 214.061 22.3798 211.254 22.9239L201.014 24.8359C198.133 25.3809 195.322 26.0445 192.393 26.2045C194.401 26.8793 196.641 26.7874 198.701 27.27C205.287 28.3623 211.928 29.1059 218.512 30.2022C219.721 30.4034 220.953 30.5207 222.153 30.7622C222.255 30.5262 222.329 30.3404 222.31 30.078C222.217 28.8303 221.848 27.4923 221.616 26.2549C221.307 24.601 221.091 22.9178 220.681 21.2864C220.507 21.2508 220.346 21.2148 220.169 21.2055Z" fill="black"/>
<path d="M109.208 58.7953C109.354 58.7791 109.499 58.7668 109.646 58.7585C109.938 58.7409 110.231 58.7305 110.524 58.7275C110.817 58.7245 111.11 58.7287 111.403 58.7403C111.696 58.7519 111.988 58.7708 112.28 58.797C112.572 58.8229 112.863 58.8563 113.153 58.8971C113.444 58.9376 113.733 58.9853 114.02 59.0401C114.308 59.0953 114.595 59.1574 114.879 59.2266C115.164 59.2958 115.447 59.3722 115.728 59.4557C116.009 59.539 116.287 59.6293 116.564 59.7266C116.84 59.8236 117.114 59.9277 117.386 60.0388C117.657 60.1497 117.925 60.2671 118.19 60.3912C118.456 60.5155 118.718 60.6463 118.977 60.7836C119.236 60.9209 119.491 61.0645 119.743 61.2145C119.995 61.3645 120.243 61.5207 120.487 61.683C120.73 61.8454 120.97 62.0137 121.206 62.188C121.441 62.3622 121.673 62.5422 121.899 62.728C122.126 62.9139 122.348 63.1052 122.565 63.302C126.358 66.7964 128.395 71.1447 128.606 76.2816C128.817 81.4338 127.513 86.2225 123.929 90.0622C121.013 93.1877 116.532 95.7673 112.157 95.9236C107.192 96.1072 102.754 95.0804 98.8701 91.8102C95.2109 88.729 92.664 84.1247 92.3015 79.3252C91.9084 74.1126 93.2251 69.0886 96.6943 65.0968C99.9761 61.32 104.223 59.1456 109.208 58.7953Z" fill="black"/>
<path d="M175.546 83.0898C176.387 83.8954 178.716 89.3379 179.417 90.7369L191.17 114.28C193.285 118.532 195.231 122.86 197.563 127.001C199.405 124.712 201.696 122.764 203.705 120.622L210.668 113.184C212.067 111.677 213.403 110.096 214.899 108.684C215.137 111.712 215.952 114.998 216.481 118.014C217.5 123.823 226.309 171.066 226.032 172.089C222.352 171.89 218.401 171.041 214.745 170.467C209.264 169.606 203.753 168.844 198.26 168.049L164.684 163.107C156.318 161.948 147.962 160.719 139.616 159.422L94.1463 152.736L77.0724 150.222C72.9109 149.583 68.6815 148.751 64.4844 148.446C64.5776 148.134 64.68 147.825 64.7914 147.52C65.2983 146.143 66.0295 144.808 66.7412 143.527C70.2063 137.29 75.3146 132.278 81.8517 129.321C97.5626 122.215 118.42 125.952 134.031 131.84C135.734 130.337 137.124 128.336 138.589 126.602L147.036 116.7L166.04 94.3917C169.218 90.6368 172.558 87.0019 175.546 83.0898Z" fill="black"/>
</g>
<defs>
<clipPath id="clip0_671_8115">
<rect width="276" height="220" fill="white"/>
</clipPath>
</defs>
</svg>
